<?xml version="1.0" standalone="no"?>
<!DOCTYPE svg PUBLIC "-//W3C//DTD SVG 1.1//EN" "http://www.w3.org/Graphics/SVG/1.1/DTD/svg11.dtd" >
<svg xmlns="http://www.w3.org/2000/svg" xmlns:xlink="http://www.w3.org/1999/xlink" version="1.1">
<metadata></metadata>
<defs>
<font id="contax_sans55_regular" horiz-adv-x="1191" >
<font-face units-per-em="2048" ascent="1569" descent="-479" />
<missing-glyph horiz-adv-x="593" />
<glyph unicode="&#xfb01;" horiz-adv-x="1255" d="M0 911v93l209 -3q0 193 94 303.5t246 110.5q159 0 266 -119l-84 -73q-81 118 -182 118q-82 0 -134.5 -83t-52.5 -257l291 3v-93l-291 2v-913h-153v913zM893.5 1257.5q-25.5 54.5 0 109.5t87.5 50q43 0 70.5 -29.5t27.5 -74.5t-28 -75t-70 -30q-62 -5 -87.5 49.5zM905 0 v1004h152v-1004h-152z" />
<glyph unicode="&#xfb02;" horiz-adv-x="1255" d="M0 911v93l209 -3q0 193 94 303.5t246 110.5q159 0 266 -119l-84 -73q-81 118 -182 118q-82 0 -134.5 -83t-52.5 -257l291 3v-93l-291 2v-913h-153v913zM905 0v1399h152v-1399h-152z" />
<glyph unicode="&#xfb03;" horiz-adv-x="1959" d="M0 911v93l209 -3q0 193 94 303.5t246 110.5q159 0 266 -119l-84 -73q-81 118 -182 118q-82 0 -134.5 -83t-52.5 -257l291 3v-93l-291 2v-913h-153v913zM705 911v93l208 -3q0 193 94 303.5t246 110.5q160 0 267 -119l-84 -73q-81 118 -183 118q-82 0 -134 -83t-52 -257 l291 3v-93l-291 2v-913h-154v913zM1598.5 1257.5q-25.5 54.5 0 109.5t87.5 50q43 0 70.5 -29.5t27.5 -74.5t-28 -75t-70 -30q-62 -5 -87.5 49.5zM1610 0v1004h151v-1004h-151z" />
<glyph unicode="&#xfb04;" horiz-adv-x="1959" d="M0 911v93l209 -3q0 193 94 303.5t246 110.5q159 0 266 -119l-84 -73q-81 118 -182 118q-82 0 -134.5 -83t-52.5 -257l291 3v-93l-291 2v-913h-153v913zM705 911v93l208 -3q0 193 94 303.5t246 110.5q160 0 267 -119l-84 -73q-81 118 -183 118q-82 0 -134 -83t-52 -257 l291 3v-93l-291 2v-913h-154v913zM1610 0v1399h151v-1399h-151z" />
<glyph horiz-adv-x="0" />
<glyph horiz-adv-x="682" />
<glyph unicode=" "  horiz-adv-x="593" />
<glyph unicode="&#x09;" horiz-adv-x="593" />
<glyph unicode="&#xa0;" horiz-adv-x="593" />
<glyph unicode="!" horiz-adv-x="567" d="M197 1399h176l-41 -1002h-94zM197.5 33.5q-25.5 54.5 0 109.5t87.5 50q42 0 70 -30t28 -75t-27.5 -74.5t-70.5 -29.5q-62 -5 -87.5 49.5z" />
<glyph unicode="&#x22;" horiz-adv-x="872" d="M215 1464h139l-24 -528h-90zM518 1464h139l-24 -528h-90z" />
<glyph unicode="#" d="M78 449v116h241l41 260h-223v117h240l65 422h123l-63 -422h264l65 422h123l-63 -422h223v-117h-242l-41 -260h224v-116h-240l-70 -449h-122l67 449h-264l-70 -449h-123l68 449h-223zM442 565h267l41 260h-267z" />
<glyph unicode="$" d="M145 360l121 35q3 -103 82 -182q86 -79 191 -94v536q-181 47 -263.5 124.5t-82.5 195.5q0 139 98 233q100 100 248 115v203h98v-201q139 -12 235.5 -89t120.5 -185l-121 -31q-13 77 -80.5 139.5t-154.5 79.5v-463q195 -51 284 -138t89 -224q0 -150 -107 -254 q-108 -104 -266 -119v-223h-98v219q-159 9 -269 102q-107 93 -125 221zM328 1014q0 -80 47 -127t164 -84v438q-92 -18 -151.5 -80t-59.5 -147zM637 121q104 17 170.5 90t66.5 172q0 94 -54.5 151t-182.5 95v-508z" />
<glyph unicode="%" horiz-adv-x="1585" d="M84 1057q0 131 96 227t232 96q133 0 229 -96q98 -94 98 -227q0 -136 -98 -230q-94 -94 -229 -94q-138 0 -232 94q-96 96 -96 230zM221 1059q0 -109 53.5 -180.5t137.5 -71.5t137 71t53 181q0 107 -53 178.5t-137 71.5t-137.5 -71.5t-53.5 -178.5zM340 -16l805 1396h96 l-805 -1396h-96zM846 307q0 132 96 228t232 96q133 0 229 -96q98 -94 98 -228q0 -135 -98 -229q-94 -94 -229 -94q-138 0 -232 94q-96 96 -96 229zM983 309q0 -109 53.5 -180.5t137.5 -71.5t137 71t53 181q0 107 -53 178.5t-137 71.5t-137.5 -71.5t-53.5 -178.5z" />
<glyph unicode="&#x26;" horiz-adv-x="1560" d="M160 383q0 126 80 235q83 111 186 160q-60 60 -74 78q-32 43 -58 104.5t-26 118.5q0 123 99 211q104 90 251 90q183 0 297 -108l-69 -94q-92 120 -223 120q-89 0 -143 -56t-54 -144q0 -36 12 -72q1 -4 35 -63q7 -10 28 -34t29 -32l35 -37l39 -39l453 -469 q41 121 29.5 228.5t-70.5 197.5h-185v113h586v-113h-239q51 -89 45 -243q-6 -149 -80 -273l252 -262h-219l-132 139q-69 -71 -173.5 -115t-221.5 -44q-124 0 -223.5 38.5t-157.5 102.5q-108 126 -108 262zM319 401q0 -127 97 -235q99 -105 241 -105q93 0 179 50 q90 50 135 104l-490 508q-162 -104 -162 -322z" />
<glyph unicode="'" horiz-adv-x="569" d="M215 1464h139l-24 -528h-90z" />
<glyph unicode="(" horiz-adv-x="696" d="M168 504q0 250 96 470.5t277 450.5l86 -55q-297 -419 -297 -866q0 -452 297 -871l-86 -55q-373 471 -373 926z" />
<glyph unicode=")" horiz-adv-x="696" d="M70 -367q297 419 297 871q0 447 -297 866l86 55q181 -230 276.5 -450.5t95.5 -470.5q0 -456 -372 -926z" />
<glyph unicode="*" d="M227 1120l52 160l282 -143l-49 313h168l-47 -313l280 145l52 -160l-310 -51l222 -223l-136 -98l-145 284l-143 -286l-136 98l220 225z" />
<glyph unicode="+" horiz-adv-x="1228" d="M111 449v139h434v448h139v-448h434v-139h-434v-449h-139v449h-434z" />
<glyph unicode="," horiz-adv-x="567" d="M47 -307l193 512l147 -53l-248 -459h-92z" />
<glyph unicode="-" horiz-adv-x="706" d="M98 453v141h510v-141h-510z" />
<glyph unicode="." horiz-adv-x="567" d="M197.5 33.5q-25.5 54.5 0 109.5t87.5 50q42 0 70 -30t28 -75t-27.5 -74.5t-70.5 -29.5q-62 -5 -87.5 49.5z" />
<glyph unicode="/" horiz-adv-x="815" d="M78 -150l549 1694l110 -31l-549 -1693z" />
<glyph unicode="0" d="M121 682q0 360 131 528q132 170 344 170q205 0 340 -172q135 -170 135 -526t-135 -528q-135 -170 -340 -170q-212 0 -344 170q-131 168 -131 528zM285 682q0 -614 311 -614q145 0 228 152.5t83 461.5q0 342 -84 479q-82 135 -227 135q-311 0 -311 -614z" />
<glyph unicode="1" horiz-adv-x="765" d="M39 1206l498 203l-9 -1409h-155l8 1255l-289 -168z" />
<glyph unicode="2" horiz-adv-x="1089" d="M14 0q504 470 637 682q70 114 88 174q21 64 21 139q0 133 -69.5 217t-178.5 84q-95 0 -172 -65.5t-121 -186.5l-121 72q61 126 171.5 195t246.5 69q176 0 289 -110q117 -108 117 -275q0 -65 -9 -112q-10 -52 -45 -123q-39 -80 -106 -158q-171 -197 -508 -467l674 12v-147 h-914z" />
<glyph unicode="3" horiz-adv-x="1089" d="M53 133l105 103q101 -168 288 -168q148 0 238 96t90 237q0 126 -94.5 198.5t-265.5 72.5q-44 0 -129 -10v126q86 -4 90 -4q172 0 263 72t91 184q0 119 -66 187.5t-171 68.5q-184 0 -269 -172l-121 72q138 184 390 184q169 0 282 -94q115 -95 115 -246q0 -104 -57 -187 t-154 -112q123 -32 191.5 -122t68.5 -213q0 -181 -139 -302q-138 -120 -353 -120q-250 0 -393 149z" />
<glyph unicode="4" d="M29 385l886 1024v-887h213v-139h-213v-383h-155v385h-731zM260 522h500v576z" />
<glyph unicode="5" horiz-adv-x="1089" d="M57 133l105 103q101 -168 282 -168q146 0 250 116q107 119 107 277q0 157 -94 264q-92 109 -244 109q-70 0 -149 -29.5t-136 -73.5v633h686v-147l-571 10v-350q88 49 209 49q203 0 332 -129q131 -125 131 -336q0 -212 -158 -346q-155 -131 -377 -131q-224 0 -373 149z " />
<glyph unicode="6" d="M113 512q0 113 42 231.5t111 214.5q62 91 156 185q145 145 328 266l116 -86q-152 -91 -303 -231q-155 -140 -217 -267q107 101 279 101q193 0 325 -129q131 -128 131 -336q0 -187 -145 -332t-332 -145q-211 0 -352 141q-139 142 -139 387zM260 455q0 -161 96 -277 q93 -112 234 -112q138 0 231 112q99 114 99 277q0 162 -99 276q-95 115 -231 115q-139 0 -234 -115q-96 -116 -96 -276z" />
<glyph unicode="7" horiz-adv-x="1024" d="M86 1217v147h936l-680 -1364h-174l690 1229z" />
<glyph unicode="8" d="M119 389q0 121 68.5 212t191.5 132q-100 37 -154.5 112.5t-54.5 178.5q0 150 123 252q125 104 303 104q179 0 301 -104q125 -101 125 -252q0 -103 -54.5 -178.5t-154.5 -112.5q123 -41 191.5 -132t68.5 -212q0 -173 -137 -289t-340 -116t-340 116t-137 289zM283 365 q0 -125 86 -211q89 -86 227 -86q139 0 225 86q88 85 88 211q0 132 -88 217q-85 88 -225 88q-139 0 -227 -88q-86 -86 -86 -217zM334 1038q0 -112 72.5 -186t189.5 -74q118 0 188 76q74 77 74 184q0 108 -72 183q-69 75 -190 75q-117 0 -189.5 -73.5t-72.5 -184.5z" />
<glyph unicode="9" d="M102 903q0 188 144 332q145 145 334 145q212 0 350 -141q141 -141 141 -387q0 -113 -42 -232t-111 -217q-62 -88 -156 -182q-145 -145 -328 -266l-117 86q152 91 304 229q156 144 217 269q-107 -101 -279 -101q-194 0 -326 129q-131 128 -131 336zM264 909 q0 -160 96 -276q100 -115 234 -115q138 0 233 115q97 117 97 276q0 158 -97 275q-94 114 -233 114q-135 0 -234 -114q-96 -116 -96 -275z" />
<glyph unicode=":" horiz-adv-x="567" d="M197.5 33.5q-25.5 54.5 0 109.5t87.5 50q42 0 70 -30t28 -75t-27.5 -74.5t-70.5 -29.5q-62 -5 -87.5 49.5zM197.5 643.5q-25.5 54.5 0 109.5t87.5 50q42 0 70 -30t28 -75t-27.5 -74.5t-70.5 -29.5q-62 -5 -87.5 49.5z" />
<glyph unicode=";" horiz-adv-x="567" d="M47 -307l193 512l147 -53l-248 -459h-92zM197.5 643.5q-25.5 54.5 0 109.5t87.5 50q42 0 70 -30t28 -75t-27.5 -74.5t-70.5 -29.5q-62 -5 -87.5 49.5z" />
<glyph unicode="&#x3c;" horiz-adv-x="1228" d="M111 455v127l1007 456v-139l-854 -381l854 -381v-139z" />
<glyph unicode="=" horiz-adv-x="1228" d="M111 242v139h1007v-139h-1007zM111 655v140h1007v-140h-1007z" />
<glyph unicode="&#x3e;" horiz-adv-x="1228" d="M111 -2v139l854 381l-854 381v139l1007 -456v-127z" />
<glyph unicode="?" horiz-adv-x="950" d="M76 1225q49 96 144 152.5t222 56.5q159 0 281 -93q121 -92 121 -243q0 -176 -148 -295q-9 -7 -35.5 -28.5t-37 -30.5t-34.5 -30t-35 -33.5t-30.5 -35.5t-28.5 -40.5t-21.5 -43t-18 -49.5t-9 -53.5t-2.5 -61.5h-94q-13 119 13.5 212.5t80.5 150.5q24 26 76 74t81 78 t54 80.5t25 105.5q0 114 -64 182t-155 68q-83 0 -150.5 -52t-107.5 -133zM309.5 33.5q-25.5 54.5 0 109.5t87.5 50q43 0 71 -30t28 -75q0 -44 -28 -74t-71 -30q-62 -5 -87.5 49.5z" />
<glyph unicode="@" horiz-adv-x="2048" d="M211 649q0 225 123 412q124 190 329.5 298.5t440.5 108.5q336 0 534 -174q199 -175 199 -456q0 -224 -133 -389q-131 -162 -309 -162q-108 0 -156.5 57t-30.5 152q-95 -209 -293 -209q-122 0 -195 88t-73 231q0 198 123 348q125 152 272 152q93 0 158.5 -49t89.5 -127 l43 143h129l-133 -438q-29 -110 -29 -137q0 -59 28.5 -91t78.5 -32q117 0 211 137q96 140 96 332q0 235 -170 385q-170 153 -440 153q-310 0 -539 -215q-227 -214 -227 -524q0 -296 188 -475q187 -178 510 -178q157 0 317.5 61.5t278.5 163.5l66 -90q-121 -88 -291 -152 q-172 -69 -371 -69q-366 0 -598 200q-227 199 -227 545zM786 600q0 -92 45.5 -146.5t116.5 -54.5q134 0 211 158q73 159 76 285q0 65 -45 113.5t-115 48.5q-114 0 -203 -132q-86 -130 -86 -272z" />
<glyph unicode="A" horiz-adv-x="1343" d="M0 0l672 1446l671 -1446h-174l-227 496h-602l-219 -496h-121zM379 584h524l-266 581z" />
<glyph unicode="B" horiz-adv-x="1325" d="M205 0v1399h491q223 0 332 -109q111 -108 111 -252q0 -86 -50.5 -169t-134.5 -132q113 -43 178.5 -137t65.5 -215q0 -138 -90 -252q-48 -61 -141 -97t-213 -36h-549zM362 88h375q70 0 124.5 21t86.5 52.5t52.5 73.5t28 78.5t7.5 71.5q0 42 -8 80.5t-28.5 78t-53 68.5 t-86.5 47.5t-123 18.5h-375v-590zM362 766h314q144 0 222.5 74t78.5 196q0 123 -78.5 199t-222.5 76h-314v-545z" />
<glyph unicode="C" horiz-adv-x="1392" d="M106 698q0 300 205 508q206 209 486 209q263 0 479 -160l-92 -112q-168 186 -387 186q-223 0 -373 -184q-148 -186 -148 -447q0 -264 150 -446q149 -180 365 -180q230 0 448 194l53 -57q-95 -98 -227.5 -161.5t-273.5 -63.5q-286 0 -484 204q-201 207 -201 510z" />
<glyph unicode="D" horiz-adv-x="1466" d="M205 0v1399h448q298 0 502 -201q205 -199 205 -500q0 -298 -205 -497q-204 -201 -502 -201h-448zM362 88h267q237 0 399 168t162 442q0 275 -162 443q-164 170 -399 170h-267v-1223z" />
<glyph unicode="E" horiz-adv-x="1187" d="M205 0v1399h823v-101l-666 13v-559l639 4v-97l-639 5v-576l666 12v-100h-823z" />
<glyph unicode="F" horiz-adv-x="1155" d="M205 0v1399h823v-101l-659 13v-559l632 4v-97l-632 5v-664h-164z" />
<glyph unicode="G" horiz-adv-x="1611" d="M106 698q0 297 209 506q211 211 508 211q339 0 551 -256l-106 -88q-93 123 -208.5 190.5t-236.5 67.5q-230 0 -389 -184q-158 -187 -158 -449q0 -257 158 -444q159 -182 389 -182q221 0 365 163q145 165 145 396l-506 -4v96l676 -4v-25q0 -297 -190 -502 q-191 -206 -490 -206q-296 0 -508 209q-209 212 -209 505z" />
<glyph unicode="H" horiz-adv-x="1458" d="M205 0v1399h157v-635h734v635h157v-1399h-157v676h-734v-676h-157z" />
<glyph unicode="I" horiz-adv-x="618" d="M229 0v1399h160v-1399h-160z" />
<glyph unicode="J" horiz-adv-x="1036" d="M2 166l104 88q114 -184 263 -184q141 0 226 114t85 299v916h160v-918q0 -223 -131 -360q-128 -137 -340 -137q-229 0 -367 182z" />
<glyph unicode="K" horiz-adv-x="1357" d="M205 0v1399h157v-1399h-157zM362 698l732 701h157l-714 -651l786 -748h-238z" />
<glyph unicode="L" horiz-adv-x="1097" d="M205 0v1399h157v-1311l666 12v-100h-823z" />
<glyph unicode="M" horiz-adv-x="1890" d="M47 0l477 1446l422 -1124l420 1124l477 -1446h-176l-342 1087l-405 -1134l-420 1130l-336 -1083h-117z" />
<glyph unicode="N" horiz-adv-x="1488" d="M205 0v1446l991 -1149l-16 1102h104v-1446l-991 1147l16 -1100h-104z" />
<glyph unicode="O" horiz-adv-x="1646" d="M106 698q0 297 209 506q208 211 508 211t508 -211q209 -209 209 -506t-211 -505q-209 -209 -506 -209q-296 0 -508 209q-209 209 -209 505zM276 698q0 -262 158 -446q159 -182 389 -182q231 0 387 182q160 183 160 446q0 264 -160 447q-156 184 -387 184 q-230 0 -389 -184q-158 -184 -158 -447z" />
<glyph unicode="P" horiz-adv-x="1222" d="M205 0v1399h483q190 0 311 -115q123 -114 123 -289q0 -174 -123 -288q-119 -113 -311 -113h-326v-594h-157zM362 680h283q133 0 221 87.5t88 227.5t-88 228t-221 88h-283v-631z" />
<glyph unicode="Q" horiz-adv-x="1646" d="M106 698q0 297 209 506q208 211 508 211t508 -211q209 -209 209 -506q0 -247 -149 -436q-146 -189 -379 -254l573 -246l-121 -110l-606 334q-8 -2 -35 -2q-296 0 -508 209q-209 209 -209 505zM276 698q0 -262 158 -446q159 -182 389 -182q231 0 387 182q160 183 160 446 q0 264 -160 447q-156 184 -387 184q-230 0 -389 -184q-158 -184 -158 -447z" />
<glyph unicode="R" horiz-adv-x="1277" d="M205 0v1399h454q216 0 353 -119q141 -120 141 -293q0 -161 -133 -276q-132 -111 -324 -111l555 -600h-211l-606 664h211q145 0 242 81q98 82 98 242q0 158 -98 240q-101 84 -242 84h-283v-1311h-157z" />
<glyph unicode="S" d="M94 344l133 37q6 -122 111 -217q109 -92 240 -92q135 0 231 84q94 85 94 213q0 115 -82 181.5t-274 111.5q-217 50 -309.5 136t-92.5 228q0 168 129 279q127 112 318 112q176 0 297 -92q117 -87 145 -215l-133 -35q-14 96 -113 176q-94 76 -202 76q-120 0 -205 -76 q-86 -74 -86 -182q0 -97 75 -153t257 -101q229 -56 327.5 -153t98.5 -259q0 -179 -140 -301q-136 -118 -342 -118q-194 0 -325 104q-132 110 -152 256z" />
<glyph unicode="T" horiz-adv-x="1067" d="M49 1303v96h969v-96l-406 8v-1311h-157v1311z" />
<glyph unicode="U" horiz-adv-x="1495" d="M197 563v836h163v-830q0 -228 107 -362q108 -135 281 -135q170 0 278 135q109 136 109 362v830h163v-836q0 -263 -159 -422q-160 -157 -391 -157q-232 0 -392 157q-159 159 -159 422z" />
<glyph unicode="V" horiz-adv-x="1343" d="M0 1399h174l533 -1166l516 1166h120l-671 -1446z" />
<glyph unicode="W" horiz-adv-x="1890" d="M47 1399h176l342 -1088l406 1135l420 -1131l335 1084h117l-477 -1446l-420 1124l-422 -1124z" />
<glyph unicode="X" horiz-adv-x="1243" d="M16 0l527 696l-488 703h197l387 -555l403 555h142l-492 -637l531 -762h-199l-424 612l-440 -612h-144z" />
<glyph unicode="Y" horiz-adv-x="1167" d="M-25 1399h201l449 -678l426 678h141l-524 -776v-623h-168v623z" />
<glyph unicode="Z" horiz-adv-x="1183" d="M33 0l844 1311l-779 -13v101h1018l-844 -1311l844 12v-100h-1083z" />
<glyph unicode="[" horiz-adv-x="696" d="M240 -395v1794h342v-107h-189v-1581h189v-106h-342z" />
<glyph unicode="\" horiz-adv-x="815" d="M25 1513l110 31l549 -1694l-111 -30z" />
<glyph unicode="]" horiz-adv-x="696" d="M115 -289h188v1581h-188v107h342v-1794h-342v106z" />
<glyph unicode="^" horiz-adv-x="1159" d="M180 776l400 709l399 -709h-88l-311 453l-312 -453h-88z" />
<glyph unicode="_" horiz-adv-x="1024" d="M0 -170h1024v-117h-1024v117z" />
<glyph unicode="`" horiz-adv-x="557" d="M55 1501l127 80l258 -422h-82z" />
<glyph unicode="a" horiz-adv-x="1095" d="M88 254q0 71 28.5 127.5t96.5 112.5q152 121 553 184q0 134 -74 199q-73 67 -164 67q-174 0 -290 -180l-105 102q189 154 395 154q167 0 283 -96q109 -90 109 -296v-22l-11 -338v-13q0 -135 60 -255h-160q-33 53 -33 164q-63 -78 -161.5 -129t-202.5 -51q-144 0 -234 74 t-90 196zM248 268q0 -88 56.5 -138t158.5 -50q119 0 209 84t90 233l4 209q-314 -52 -428 -151q-50 -46 -70 -89t-20 -98z" />
<glyph unicode="b" horiz-adv-x="1247" d="M176 0v1399h148v-559q48 79 144.5 129.5t205.5 50.5q197 0 336 -154q139 -151 139 -364t-139 -367q-139 -151 -336 -151q-109 0 -205.5 50.5t-144.5 129.5v-164h-148zM324 502q0 -198 92 -322q92 -123 243 -123q141 0 236 129q94 128 94 316t-94 313q-95 129 -236 129 q-153 0 -244 -120t-91 -322z" />
<glyph unicode="c" horiz-adv-x="1067" d="M98 498q0 213 146 368q148 154 362 154q192 0 357 -121l-80 -96q-124 139 -277 139q-158 0 -252 -129q-96 -131 -96 -315v-11q0 -193 104 -303q106 -112 250 -112q80 0 154 30q72 30 98 52q40 31 68 57l51 -55q-156 -172 -383 -172q-214 0 -358 147q-144 150 -144 367z " />
<glyph unicode="d" horiz-adv-x="1247" d="M98 502q0 214 138 364q139 154 337 154q109 0 206 -50.5t145 -129.5v559h147v-1399h-147v164q-48 -79 -145 -129.5t-206 -50.5q-198 0 -337 151q-138 153 -138 367zM258 502q0 -188 94 -316q94 -129 236 -129q152 0 243 123q93 125 93 322q0 201 -92 321.5t-244 120.5 q-142 0 -236 -129q-94 -125 -94 -313z" />
<glyph unicode="e" horiz-adv-x="1150" d="M98 512q0 211 146 360q145 148 346 148q210 0 336 -141q127 -139 127 -359h-795v-11q0 -207 111 -321q113 -116 260 -116q79 0 153 30t99 52q34 26 67 57l51 -55q-156 -172 -383 -172q-217 0 -368 151q-150 150 -150 377zM260 598h633q-12 158 -95 253t-208 95 q-113 0 -217 -94q-104 -96 -113 -254z" />
<glyph unicode="f" horiz-adv-x="704" d="M0 911v93l209 -3q0 193 94 303.5t246 110.5q159 0 266 -119l-84 -73q-81 118 -182 118q-82 0 -134.5 -83t-52.5 -257l291 3v-93l-291 2v-913h-153v913z" />
<glyph unicode="g" horiz-adv-x="1247" d="M98 502q0 214 138 364q139 154 337 154q109 0 206 -50.5t145 -129.5v164h147v-959q0 -188 -127 -321q-127 -136 -360 -136q-105 0 -203 29q-88 26 -139 59q-41 24 -105 78l90 94q147 -184 357 -184q156 0 248 98.5t92 300.5v101q-48 -79 -145 -129.5t-206 -50.5 q-198 0 -337 151q-138 153 -138 367zM258 502q0 -188 94 -316q95 -127 236 -127q152 0 244 121t92 322q0 196 -93 321q-91 123 -243 123q-142 0 -236 -129q-94 -128 -94 -315z" />
<glyph unicode="h" horiz-adv-x="1214" d="M176 0v1399h152v-561q46 78 136.5 130t205.5 52q57 0 107 -10.5t100.5 -39.5t86 -75t58 -121.5t22.5 -173.5v-600h-151v596q0 163 -75.5 237t-203.5 74q-126 0 -206 -83t-80 -218v-606h-152z" />
<glyph unicode="i" horiz-adv-x="550" d="M188 1258q-13 27 -12.5 54.5t12.5 54.5q23 50 78 51q5 0 10 -1q43 0 71 -30t28 -74q0 -45 -28 -75t-71 -30h-10q-55 0 -78 50zM201 0v1004h151v-1004h-151z" />
<glyph unicode="j" horiz-adv-x="550" d="M-236 -334l91 94q24 -32 36 -43q17 -17 54 -35t71 -18q185 0 185 268v1072h151v-1059q0 -151 -94 -252q-94 -105 -242 -105q-156 0 -252 78zM188 1258q-12 27 -12 54.5t12 54.5q24 50 78 50h10q43 0 71 -30t28 -74q0 -45 -28 -75t-71 -30h-10q-54 0 -78 50z" />
<glyph unicode="k" horiz-adv-x="1091" d="M176 0v1399h152v-1399h-152zM328 516l510 488h145l-496 -443l594 -561h-221z" />
<glyph unicode="l" horiz-adv-x="550" d="M201 0v1399h151v-1399h-151z" />
<glyph unicode="m" horiz-adv-x="1841" d="M176 0v1004h152v-156q49 74 131.5 123t187.5 49q242 0 318 -205q54 90 147.5 147.5t206.5 57.5q149 0 250 -94q102 -94 102 -326v-600h-151v596q0 163 -69.5 237t-186.5 74t-191 -83t-74 -218v-6v-600h-151v596q0 163 -69.5 237t-186.5 74t-190.5 -83t-73.5 -218v-606 h-152z" />
<glyph unicode="n" horiz-adv-x="1214" d="M176 0v1004h152v-166q46 78 136.5 130t205.5 52q57 0 107 -10.5t100.5 -39.5t86 -75t58 -121.5t22.5 -173.5v-600h-151v596q0 163 -75.5 237t-203.5 74q-126 0 -206 -83t-80 -218v-606h-152z" />
<glyph unicode="o" horiz-adv-x="1196" d="M98 502q0 212 146 364q148 154 354 154q207 0 352 -154q148 -151 148 -364q0 -216 -148 -367q-145 -151 -352 -151q-206 0 -354 151q-146 152 -146 367zM258 504q0 -188 98 -316q99 -129 242 -129t242 129q98 128 98 316q0 185 -98 313q-99 129 -242 129t-242 -129 q-98 -128 -98 -313z" />
<glyph unicode="p" horiz-adv-x="1247" d="M176 -395v1399h148v-164q48 79 144.5 129.5t205.5 50.5q197 0 336 -154q139 -151 139 -364t-139 -367q-139 -151 -336 -151q-109 0 -205.5 50.5t-144.5 129.5v-559h-148zM324 502q0 -202 91.5 -322.5t243.5 -120.5q141 0 236 127q94 128 94 316q0 187 -94 315 q-95 129 -236 129q-151 0 -243 -123q-92 -124 -92 -321z" />
<glyph unicode="q" horiz-adv-x="1247" d="M98 502q0 214 138 364q139 154 337 154q109 0 206 -50.5t145 -129.5v164h147v-1399h-147v559q-48 -79 -145 -129.5t-206 -50.5q-198 0 -337 151q-138 153 -138 367zM258 502q0 -188 94 -316q95 -127 236 -127q152 0 244 121t92 322q0 196 -93 321q-91 123 -243 123 q-142 0 -236 -129q-94 -128 -94 -315z" />
<glyph unicode="r" horiz-adv-x="704" d="M176 0v1004h152v-166q45 79 139 130.5t201 51.5v-117q-27 3 -53 3q-119 0 -195 -70q-92 -84 -92 -230v-606h-152z" />
<glyph unicode="s" horiz-adv-x="1011" d="M92 252l121 31q13 -98 93 -161t186 -63t182 58t76 143q0 74 -66.5 118t-218.5 77q-174 38 -253 105.5t-79 172.5q0 123 107 205t262 82q142 0 242 -67t124 -165l-118 -26q-25 78 -96.5 130t-155.5 52q-93 0 -161.5 -51.5t-68.5 -120.5q0 -67 59.5 -105t207.5 -69 q186 -42 267 -115.5t81 -193.5q0 -130 -115 -219q-115 -86 -283 -86q-157 0 -266 77q-106 75 -127 191z" />
<glyph unicode="t" horiz-adv-x="684" d="M0 911v93l209 -3v330h153v-330l291 3v-93l-291 2v-645q0 -171 60 -268h-170q-43 107 -43 268v645z" />
<glyph unicode="u" horiz-adv-x="1214" d="M170 403v601h152v-596q0 -163 76 -237.5t204 -74.5q126 0 205.5 81.5t79.5 219.5v607h151v-1004h-151v166q-46 -78 -136.5 -130t-205.5 -52q-57 0 -107 10.5t-100.5 39.5t-86.5 74.5t-58.5 121t-22.5 173.5z" />
<glyph unicode="v" horiz-adv-x="1032" d="M10 1004h176l365 -801l354 801h117l-506 -1059z" />
<glyph unicode="w" horiz-adv-x="1601" d="M53 1004h160l297 -762l324 809l335 -809l265 762h114l-411 -1059l-336 788l-336 -788z" />
<glyph unicode="x" horiz-adv-x="960" d="M41 0l362 479l-362 525h180l275 -394l276 394h135l-364 -467l375 -537h-183l-280 406l-279 -406h-135z" />
<glyph unicode="y" horiz-adv-x="1058" d="M10 1004h176l375 -801l367 801h114l-725 -1483l-137 76q11 10 53 55q38 41 111 153q77 110 135 236z" />
<glyph unicode="z" horiz-adv-x="929" d="M33 0l592 920l-543 -13v97h762l-594 -920l594 12v-96h-811z" />
<glyph unicode="{" horiz-adv-x="696" d="M106 451v96q87 17 117.5 57t30.5 135v377q0 149 69 216t224 67q33 0 47 -2v-105q-126 -3 -156 -37q-30 -35 -30 -163v-353q0 -94 -30 -145.5t-106 -93.5q73 -39 104.5 -95t31.5 -149v-338q0 -136 30 -170q30 -35 156 -35v-104q-16 -2 -49 -2q-158 0 -224.5 69.5 t-66.5 231.5v350q0 95 -31.5 137.5t-116.5 55.5z" />
<glyph unicode="|" horiz-adv-x="454" d="M158 -410v2048h139v-2048h-139z" />
<glyph unicode="}" horiz-adv-x="696" d="M102 -287q126 0 156 35q31 36 31 170v338q0 93 31.5 149.5t103.5 94.5q-75 42 -105 93t-30 146v353q0 127 -31 163q-30 34 -156 37v105q14 2 48 2q155 0 223.5 -66.5t68.5 -216.5v-377q0 -95 30.5 -135t117.5 -57v-96q-85 -13 -116.5 -55.5t-31.5 -137.5v-350 q0 -162 -66 -231.5t-224 -69.5q-34 0 -50 2v104z" />
<glyph unicode="~" horiz-adv-x="1228" d="M113 385q83 262 307 262q76 0 213 -67q141 -66 215 -66q53 0 96 37q62 53 82 119l90 -19q-89 -274 -307 -274q-74 0 -215 72q-137 73 -213 73q-53 0 -96 -37q-63 -54 -82 -118z" />
<glyph unicode="&#xa1;" horiz-adv-x="567" d="M184 915q0 45 28 75t71 30q62 5 87.5 -49.5t0 -109.5t-87.5 -50q-43 0 -71 30t-28 74zM195 -395l41 1001h94l41 -1001h-176z" />
<glyph unicode="&#xa2;" d="M135 688q0 198 123 342q123 147 313 174v193h99v-187q180 -9 329 -120l-79 -97q-110 125 -250 137v-868q69 3 141 35q66 28 94 49l64 55l51 -55q-145 -157 -350 -172v-211h-99v215q-189 21 -313 166q-123 144 -123 344zM295 688q-1 -167 74.5 -276.5t201.5 -141.5v854 q-122 -29 -200 -151q-76 -119 -76 -285z" />
<glyph unicode="&#xa3;" d="M115 635v115h186q-45 91 -45 213q0 190 137 303q138 114 316 114q217 0 358 -141l-98 -96l-15 18l-22 25q-44 44 -55 51q-74 59 -168 59q-136 0 -213.5 -93t-77.5 -240q0 -85 41 -185l14 -28h410v-115h-369q56 -109 47 -209q-7 -95 -42 -163t-99 -126l629 10v-147h-897 v133l151 2q72 72 90 170q15 62 9.5 123.5t-19.5 108t-41 98.5h-227z" />
<glyph unicode="&#xa4;" d="M141 299l185 182q-66 88 -66 199t66 199l-185 182l74 74l184 -185q88 66 197 66t197 -66l184 185l74 -74l-185 -182q66 -88 66 -199t-66 -199l185 -182l-74 -74l-184 183q-86 -63 -197 -63t-197 63l-184 -183zM389 680q0 -85 60 -148q62 -59 147 -59q86 0 145 59 q61 62 61 147.5t-61 145.5q-60 61 -145.5 61t-146.5 -61q-60 -60 -60 -145z" />
<glyph unicode="&#xa5;" d="M61 1364h189l383 -641h2l354 641h141l-391 -641h301v-100h-362v-195h346v-100h-346v-328h-164v328h-346v100h346v195h-362v100h301z" />
<glyph unicode="&#xa6;" horiz-adv-x="454" d="M158 -137v512h139v-512h-139zM158 887v512h139v-512h-139z" />
<glyph unicode="&#xa7;" horiz-adv-x="1116" d="M131 588q0 182 174 289q-125 104 -125 241q0 142 105 236q104 94 268 94q159 0 254 -85.5t115 -221.5l-134 -35q-20 115 -81 183.5t-160 68.5q-93 0 -155 -56t-62 -147q0 -146 231 -268q54 -27 83 -42t81 -45.5t82 -53.5t68.5 -58.5t59.5 -69.5t35.5 -78t14.5 -91 q0 -187 -176 -289q127 -103 127 -242q0 -140 -105 -235q-106 -95 -268 -95q-159 0 -253.5 86t-114.5 222l133 34q20 -115 81 -183.5t160 -68.5q93 0 155 56t62 147q0 77 -63 144.5t-168 121.5q-167 87 -232 133q-194 138 -192 308zM281 623q0 -122 106 -203q60 -46 105 -72 q18 -9 59.5 -32.5t66.5 -36.5q64 -34 119 -68q99 77 99 203q0 119 -109 202q-64 50 -104 70q-36 22 -127 70q-53 28 -119 69q-96 -84 -96 -202z" />
<glyph unicode="&#xa8;" horiz-adv-x="557" d="M12.5 1257.5q-25.5 54.5 0 109.5t87.5 50q43 0 71 -30t28 -74q0 -45 -28 -75t-71 -30q-62 -5 -87.5 49.5zM371.5 1257.5q-25.5 54.5 0 109.5t87.5 50q43 0 70.5 -29.5t27.5 -74.5t-28 -75t-70 -30q-62 -5 -87.5 49.5z" />
<glyph unicode="&#xa9;" horiz-adv-x="1646" d="M106 698q0 297 209 506q208 211 508 211t508 -211q209 -209 209 -506t-211 -505q-209 -209 -506 -209q-296 0 -508 209q-209 209 -209 505zM209 698q0 -258 180 -438q182 -182 434 -182t434 182q181 181 181 438q0 260 -181 441q-182 182 -434 182t-434 -182 q-180 -180 -180 -441zM418 694q0 175 119 297q119 125 290 125q155 0 295 -104l-75 -90q-108 120 -220 120q-119 0 -192 -102q-74 -103 -74 -246q-3 -154 80 -243t193 -89q135 0 256 115l49 -53q-131 -143 -316 -143q-173 0 -288 118q-117 120 -117 295z" />
<glyph unicode="&#xaa;" horiz-adv-x="847" d="M139 539v90h566v-90h-566zM143 907q0 95 86 160q84 66 322 107q-4 65 -42 101t-89 36q-101 0 -172 -115l-84 82q123 102 256 102q114 0 183 -64t65 -196l-6 -202q-3 -81 43 -175h-123q-22 29 -25 78q-91 -88 -207 -88q-93 0 -150 47.5t-57 126.5zM264 918 q0 -103 117 -103q69 0 117.5 48t48.5 130l4 113q-161 -29 -224 -75t-63 -113z" />
<glyph unicode="&#xab;" d="M84 524l471 414l51 -51l-303 -363l303 -362l-51 -51zM526 524l471 414l52 -51l-304 -363l304 -362l-52 -51z" />
<glyph unicode="&#xac;" horiz-adv-x="1228" d="M111 655v140h1007v-553h-139v413h-868z" />
<glyph unicode="&#xad;" horiz-adv-x="706" d="M98 453v141h510v-141h-510z" />
<glyph unicode="&#xae;" horiz-adv-x="1220" d="M160 1055q0 187 131 315q131 131 321 131q187 0 318 -131q133 -130 133 -315q0 -183 -133 -316q-132 -129 -318 -129q-189 0 -321 129q-131 128 -131 316zM240 1055q0 -154 108 -262q109 -109 264 -109q151 0 260 109t109 262q0 155 -107 262q-108 108 -262 108 q-156 0 -264 -108t-108 -262zM444 797v514h172q80 0 132.5 -44.5t52.5 -111.5q0 -55 -42 -94.5t-106 -50.5l176 -213h-104l-201 243v-243h-80zM524 1055h88q46 0 76.5 26t30.5 74t-30.5 74t-76.5 26h-88v-200z" />
<glyph unicode="&#xaf;" horiz-adv-x="557" d="M12 1247v111h533v-111h-533z" />
<glyph unicode="&#xb0;" horiz-adv-x="847" d="M121 1145q0 124 88 209q88 88 215 88q125 0 213 -88q90 -87 90 -209q0 -121 -90 -211q-89 -86 -213 -86q-126 0 -215 86q-88 88 -88 211zM254 1147q0 -92 48.5 -153.5t121.5 -61.5t121.5 61.5t48.5 153.5q0 91 -48.5 152t-121.5 61t-121.5 -61t-48.5 -152z" />
<glyph unicode="&#xb1;" horiz-adv-x="1228" d="M111 0v139h1007v-139h-1007zM111 604v139h434v392h139v-392h434v-139h-434v-391h-139v391h-434z" />
<glyph unicode="&#xb2;" horiz-adv-x="790" d="M51 555q201 174 330 309q119 128 137 174q25 55 25 107q0 72 -40.5 118t-103.5 46q-116 0 -178 -154l-100 57q91 168 280 168q115 0 191 -67q78 -69 78 -168q0 -94 -74 -197q-69 -95 -322 -286l398 4v-111h-621z" />
<glyph unicode="&#xb3;" horiz-adv-x="790" d="M94 645l84 78q65 -105 180 -105q87 0 141 52t54 131q0 67 -56.5 105t-158.5 38q-47 0 -94 -8v102q137 -12 208.5 26t71.5 107q0 62 -38 99t-99 37q-111 0 -166 -105l-98 58q102 120 264 120q112 0 187 -58.5t75 -150.5q0 -56 -28 -103t-78 -71q137 -52 137 -194 q0 -108 -92 -185q-91 -73 -230 -73q-164 0 -264 100z" />
<glyph unicode="&#xb4;" horiz-adv-x="557" d="M158 1159l258 422l127 -80l-303 -342h-82z" />
<glyph unicode="&#xb5;" horiz-adv-x="1220" d="M176 -395v1399h152v-596q0 -163 76 -237.5t204 -74.5q126 0 205.5 81.5t79.5 219.5v607h151v-1004h-151v166q-46 -78 -128.5 -130t-182.5 -52q-160 0 -254 82v-461h-152z" />
<glyph unicode="&#xb6;" d="M82 975q0 214 147 319q150 105 349 105h567v-101l-160 2v-1671h-100v1674l-166 2v-1676h-350v101l209 -4v823q-72 0 -140.5 14t-133.5 46.5t-114 80.5t-78.5 121.5t-29.5 163.5zM303 975q0 -137 78 -238q80 -95 197 -98v670q-116 -3 -197 -99q-78 -96 -78 -235z" />
<glyph unicode="&#xb7;" horiz-adv-x="567" d="M197.5 469.5q-25.5 54.5 0 109.5t87.5 50q42 0 70 -30t28 -75t-27.5 -74.5t-70.5 -29.5q-62 -5 -87.5 49.5z" />
<glyph unicode="&#xb8;" horiz-adv-x="557" d="M78 -451l22 86q43 -18 89.5 -22t84.5 5t63 33.5t25 61.5q0 48 -59.5 73t-142.5 7l96 223h66l-58 -135q100 0 170 -42t70 -122t-74.5 -130t-224.5 -50z" />
<glyph unicode="&#xb9;" horiz-adv-x="688" d="M82 1278l342 129l-4 -850h-123l4 721l-172 -94z" />
<glyph unicode="&#xba;" horiz-adv-x="847" d="M113 539v90h622v-90h-622zM113 1057q0 131 90 227q93 96 221 96q126 0 219 -96q92 -95 92 -227q0 -135 -92 -230q-91 -94 -219 -94q-130 0 -221 94q-90 96 -90 230zM231 1059q0 -109 55.5 -182.5t137.5 -73.5t137 73.5t55 182.5q0 106 -55.5 179t-136.5 73 q-82 0 -137.5 -73t-55.5 -179z" />
<glyph unicode="&#xbb;" d="M143 162l303 362l-303 363l52 51l471 -414l-471 -413zM586 162l303 362l-303 363l51 51l471 -414l-471 -413z" />
<glyph unicode="&#xbc;" horiz-adv-x="1562" d="M82 1278l342 129l-4 -850h-123l4 721l-172 -94zM291 -16l805 1396h96l-805 -1396h-96zM729 225l596 637v-534h135v-105h-135v-223h-123v225h-473zM930 328h272v293z" />
<glyph unicode="&#xbd;" horiz-adv-x="1585" d="M82 1278l342 129l-4 -850h-123l4 721l-172 -94zM254 -16l805 1396h96l-805 -1396h-96zM840 0q196 169 329 309q120 130 138 174q24 52 24 107q0 72 -40 118t-103 46q-116 0 -178 -154l-101 57q91 168 281 168q114 0 190 -67q78 -69 78 -168q0 -94 -74 -197 q-71 -99 -321 -287l397 5v-111h-620z" />
<glyph unicode="&#xbe;" horiz-adv-x="1585" d="M94 645l84 78q65 -105 180 -105q87 0 141 52t54 131q0 67 -56.5 105t-158.5 38q-47 0 -94 -8v102q137 -12 208.5 26t71.5 107q0 62 -38 99t-99 37q-111 0 -166 -105l-98 58q102 120 264 120q112 0 187 -58.5t75 -150.5q0 -56 -28 -103t-78 -71q137 -52 137 -194 q0 -108 -92 -185q-91 -73 -230 -73q-164 0 -264 100zM383 -16l805 1396h96l-805 -1396h-96zM772 225l596 637v-534h135v-105h-135v-223h-123v225h-473zM973 328h272v293z" />
<glyph unicode="&#xbf;" horiz-adv-x="950" d="M106 -94q0 175 146 295q8 6 35.5 28t38 30.5t35 30t35 34t30.5 35t29 40t21.5 43t18 49.5t9 53.5t2.5 61.5h94q25 -234 -94 -364q-22 -23 -61.5 -58.5t-65 -61t-53.5 -60t-42 -73.5t-14 -83q0 -114 64 -182t155 -68q83 0 151.5 52t107.5 132l126 -61q-49 -96 -144 -152.5 t-222 -56.5q-160 0 -281 92t-121 244zM455 915q0 45 28 75t70 30q62 5 87.5 -49.5t0 -109.5t-87.5 -50q-43 0 -70.5 29.5t-27.5 74.5z" />
<glyph unicode="&#xc0;" horiz-adv-x="1343" d="M0 0l672 1446l671 -1446h-174l-227 496h-602l-219 -496h-121zM379 584h524l-266 581zM428 1855l127 80l258 -422h-82z" />
<glyph unicode="&#xc1;" horiz-adv-x="1343" d="M0 0l672 1446l671 -1446h-174l-227 496h-602l-219 -496h-121zM379 584h524l-266 581zM551 1513l258 422l127 -80l-303 -342h-82z" />
<glyph unicode="&#xc2;" horiz-adv-x="1343" d="M0 0l672 1446l671 -1446h-174l-227 496h-602l-219 -496h-121zM379 584h524l-266 581zM414 1513l258 422l258 -422h-82l-176 201l-176 -201h-82z" />
<glyph unicode="&#xc3;" horiz-adv-x="1343" d="M0 0l672 1446l671 -1446h-174l-227 496h-602l-219 -496h-121zM362 1565q25 82 81 135t137 53q54 0 133 -39q84 -37 141 -37q46 0 75 26.5t36 59.5l61 -18q-26 -82 -81 -135.5t-136 -53.5q-53 0 -137 37q-79 39 -137 39q-46 0 -75 -26.5t-36 -59.5zM379 584h524l-266 581z " />
<glyph unicode="&#xc4;" horiz-adv-x="1343" d="M0 0l672 1446l671 -1446h-174l-227 496h-602l-219 -496h-121zM379 584h524l-266 581zM406.5 1613q-25.5 55 0 109.5t87.5 49.5q42 0 70 -30t28 -75t-27.5 -74.5t-70.5 -29.5q-62 -5 -87.5 50zM764.5 1613q-25.5 55 0 109.5t87.5 49.5q42 0 70 -30t28 -75t-27.5 -74.5 t-70.5 -29.5q-62 -5 -87.5 50z" />
<glyph unicode="&#xc5;" horiz-adv-x="1343" d="M0 0l672 1446l671 -1446h-174l-227 496h-602l-219 -496h-121zM379 584h524l-266 581zM430 1751q0 98 70 168t172 70q100 0 170 -70q71 -71 71 -168t-71 -168q-70 -70 -170 -70q-102 0 -172 70t-70 168zM537 1752.5q0 -71.5 38 -122.5q38 -50 96.5 -50t96.5 50 q38 51 38 122.5t-38 121.5t-96.5 50t-96.5 -50t-38 -121.5z" />
<glyph unicode="&#xc6;" horiz-adv-x="1810" d="M-61 0l870 1399h842v-101l-635 13v-559l608 4v-97l-608 5v-576l635 12v-100h-793v571h-450l-349 -571h-120zM463 662h395v649z" />
<glyph unicode="&#xc7;" horiz-adv-x="1392" d="M106 698q0 300 205 508q206 209 486 209q263 0 479 -160l-92 -112q-168 186 -387 186q-223 0 -373 -184q-148 -186 -148 -447q0 -264 150 -446q149 -180 365 -180q230 0 448 194l53 -57q-95 -98 -227.5 -161.5t-273.5 -63.5h-15l-43 -103q100 0 170 -42t70 -122 t-74.5 -130t-224.5 -50l-127 12l22 86q43 -18 89.5 -22t84.5 5t63 33.5t25 61.5q0 48 -59.5 73t-142.5 7l84 195q-256 30 -432 227q-175 199 -175 483z" />
<glyph unicode="&#xc8;" horiz-adv-x="1187" d="M205 0v1399h823v-101l-666 13v-559l639 4v-97l-639 5v-576l666 12v-100h-823zM375 1855l127 80l258 -422h-82z" />
<glyph unicode="&#xc9;" horiz-adv-x="1187" d="M205 0v1399h823v-101l-666 13v-559l639 4v-97l-639 5v-576l666 12v-100h-823zM514 1513l258 422l127 -80l-303 -342h-82z" />
<glyph unicode="&#xca;" horiz-adv-x="1187" d="M205 0v1399h823v-101l-666 13v-559l639 4v-97l-639 5v-576l666 12v-100h-823zM360 1513l258 422l259 -422h-82l-177 201l-176 -201h-82z" />
<glyph unicode="&#xcb;" horiz-adv-x="1187" d="M205 0v1399h823v-101l-666 13v-559l639 4v-97l-639 5v-576l666 12v-100h-823zM352.5 1613q-25.5 55 0 109.5t87.5 49.5q43 0 71 -30t28 -75q0 -44 -28 -74t-71 -30q-62 -5 -87.5 50zM711.5 1613q-25.5 55 0 109.5t87.5 49.5q42 0 70 -30t28 -75t-27.5 -74.5t-70.5 -29.5 q-62 -5 -87.5 50z" />
<glyph unicode="&#xcc;" horiz-adv-x="618" d="M63 1855l127 80l259 -422h-82zM229 0v1399h160v-1399h-160z" />
<glyph unicode="&#xcd;" horiz-adv-x="618" d="M186 1513l258 422l127 -80l-303 -342h-82zM229 0v1399h160v-1399h-160z" />
<glyph unicode="&#xce;" horiz-adv-x="618" d="M49 1513l258 422l258 -422h-82l-176 201l-176 -201h-82zM229 0v1399h160v-1399h-160z" />
<glyph unicode="&#xcf;" horiz-adv-x="618" d="M41.5 1613q-25.5 55 0 109.5t87.5 49.5q42 0 70 -30t28 -75t-27.5 -74.5t-70.5 -29.5q-62 -5 -87.5 50zM229 0v1399h160v-1399h-160zM399.5 1613q-25.5 55 0 109.5t87.5 49.5q43 0 71 -30t28 -75q0 -44 -28 -74t-71 -30q-62 -5 -87.5 50z" />
<glyph unicode="&#xd0;" horiz-adv-x="1466" d="M0 670v100h205v629h448q298 0 502 -201q205 -199 205 -500q0 -298 -205 -497q-204 -201 -502 -201h-448v670h-205zM362 88h267q237 0 399 168t162 442q0 275 -162 443q-164 170 -399 170h-267v-541h365v-100h-365v-582z" />
<glyph unicode="&#xd1;" horiz-adv-x="1488" d="M205 0v1446l991 -1149l-16 1102h104v-1446l-991 1147l16 -1100h-104zM467 1565q25 82 80.5 135t136.5 53q54 0 133 -39q84 -37 141 -37q46 0 75 26.5t36 59.5l61 -18q-26 -82 -81 -135.5t-136 -53.5q-53 0 -137 37q-79 39 -137 39q-46 0 -75 -26.5t-36 -59.5z" />
<glyph unicode="&#xd2;" horiz-adv-x="1646" d="M106 698q0 297 209 506q208 211 508 211t508 -211q209 -209 209 -506t-211 -505q-209 -209 -506 -209q-296 0 -508 209q-209 209 -209 505zM276 698q0 -262 158 -446q159 -182 389 -182q231 0 387 182q160 183 160 446q0 264 -160 447q-156 184 -387 184 q-230 0 -389 -184q-158 -184 -158 -447zM580 1855l127 80l258 -422h-82z" />
<glyph unicode="&#xd3;" horiz-adv-x="1646" d="M106 698q0 297 209 506q208 211 508 211t508 -211q209 -209 209 -506t-211 -505q-209 -209 -506 -209q-296 0 -508 209q-209 209 -209 505zM276 698q0 -262 158 -446q159 -182 389 -182q231 0 387 182q160 183 160 446q0 264 -160 447q-156 184 -387 184 q-230 0 -389 -184q-158 -184 -158 -447zM702 1513l259 422l126 -80l-303 -342h-82z" />
<glyph unicode="&#xd4;" horiz-adv-x="1646" d="M106 698q0 297 209 506q208 211 508 211t508 -211q209 -209 209 -506t-211 -505q-209 -209 -506 -209q-296 0 -508 209q-209 209 -209 505zM276 698q0 -262 158 -446q159 -182 389 -182q231 0 387 182q160 183 160 446q0 264 -160 447q-156 184 -387 184 q-230 0 -389 -184q-158 -184 -158 -447zM565 1513l258 422l258 -422h-82l-176 201l-176 -201h-82z" />
<glyph unicode="&#xd5;" horiz-adv-x="1646" d="M106 698q0 297 209 506q208 211 508 211t508 -211q209 -209 209 -506t-211 -505q-209 -209 -506 -209q-296 0 -508 209q-209 209 -209 505zM276 698q0 -262 158 -446q159 -182 389 -182q231 0 387 182q160 183 160 446q0 264 -160 447q-156 184 -387 184 q-230 0 -389 -184q-158 -184 -158 -447zM514 1565q25 82 80.5 135t136.5 53q54 0 133 -39q84 -37 142 -37q46 0 74.5 26t35.5 60l62 -18q-26 -82 -81 -135.5t-136 -53.5q-54 0 -138 37q-79 39 -137 39q-46 0 -75 -26.5t-36 -59.5z" />
<glyph unicode="&#xd6;" horiz-adv-x="1646" d="M106 698q0 297 209 506q208 211 508 211t508 -211q209 -209 209 -506t-211 -505q-209 -209 -506 -209q-296 0 -508 209q-209 209 -209 505zM276 698q0 -262 158 -446q159 -182 389 -182q231 0 387 182q160 183 160 446q0 264 -160 447q-156 184 -387 184 q-230 0 -389 -184q-158 -184 -158 -447zM557.5 1613q-25.5 55 0 109.5t87.5 49.5q42 0 70 -30t28 -75t-27.5 -74.5t-70.5 -29.5q-62 -5 -87.5 50zM916.5 1613q-25.5 55 0 109.5t87.5 49.5q42 0 70 -30t28 -75t-27.5 -74.5t-70.5 -29.5q-62 -5 -87.5 50z" />
<glyph unicode="&#xd7;" horiz-adv-x="1228" d="M145 147l373 373l-371 369l99 98l370 -369l369 369l98 -98l-368 -369l370 -373l-98 -98l-371 373l-372 -373z" />
<glyph unicode="&#xd8;" horiz-adv-x="1609" d="M84 -70l229 265q-207 207 -207 503q0 297 209 506q208 211 508 211q235 0 424 -139l166 192h143l-227 -262q211 -205 211 -508q0 -297 -211 -505q-209 -209 -506 -209q-237 0 -428 141l-168 -195h-143zM276 698q0 -226 123 -401l770 891q-150 141 -346 141 q-230 0 -389 -184q-158 -184 -158 -447zM471 213q149 -143 352 -143q231 0 387 182q160 183 160 446q0 230 -129 406z" />
<glyph unicode="&#xd9;" horiz-adv-x="1495" d="M197 563v836h163v-830q0 -228 107 -362q108 -135 281 -135q170 0 278 135q109 136 109 362v830h163v-836q0 -263 -159 -422q-160 -157 -391 -157q-232 0 -392 157q-159 159 -159 422zM504 1855l127 80l258 -422h-82z" />
<glyph unicode="&#xda;" horiz-adv-x="1495" d="M197 563v836h163v-830q0 -228 107 -362q108 -135 281 -135q170 0 278 135q109 136 109 362v830h163v-836q0 -263 -159 -422q-160 -157 -391 -157q-232 0 -392 157q-159 159 -159 422zM627 1513l258 422l127 -80l-303 -342h-82z" />
<glyph unicode="&#xdb;" horiz-adv-x="1495" d="M197 563v836h163v-830q0 -228 107 -362q108 -135 281 -135q170 0 278 135q109 136 109 362v830h163v-836q0 -263 -159 -422q-160 -157 -391 -157q-232 0 -392 157q-159 159 -159 422zM489 1513l259 422l258 -422h-82l-176 201l-177 -201h-82z" />
<glyph unicode="&#xdc;" horiz-adv-x="1495" d="M197 563v836h163v-830q0 -228 107 -362q108 -135 281 -135q170 0 278 135q109 136 109 362v830h163v-836q0 -263 -159 -422q-160 -157 -391 -157q-232 0 -392 157q-159 159 -159 422zM481.5 1613q-25.5 55 0 109.5t87.5 49.5q43 0 71 -30t28 -75q0 -44 -28 -74t-71 -30 q-62 -5 -87.5 50zM840.5 1613q-25.5 55 0 109.5t87.5 49.5q42 0 70 -30t28 -75t-27.5 -74.5t-70.5 -29.5q-62 -5 -87.5 50z" />
<glyph unicode="&#xdd;" horiz-adv-x="1167" d="M-25 1399h201l449 -678l426 678h141l-524 -776v-623h-168v623zM516 1513l258 422l127 -80l-303 -342h-82z" />
<glyph unicode="&#xde;" horiz-adv-x="1228" d="M205 0v1399h157v-289h326q190 0 311 -115q123 -114 123 -288q0 -175 -123 -289q-119 -113 -311 -113h-326v-305h-157zM362 391h283q133 0 221 88t88 228t-88 227.5t-221 87.5h-283v-631z" />
<glyph unicode="&#xdf;" horiz-adv-x="1142" d="M0 911v93l176 -3q0 236 113 340q115 106 278 109q42 0 83.5 -7.5t86.5 -28t79.5 -51.5t56.5 -83.5t22 -118.5q0 -79 -48 -143t-116 -98q-164 -82 -164 -148q0 -39 47.5 -76.5t133.5 -77.5q49 -22 77 -36.5t73 -40t72 -49t55 -55t41 -69t13 -79.5q0 -137 -92 -221 t-254 -84q-148 0 -233 71.5t-109 196.5l121 31q30 -224 221 -224q89 0 141 56.5t52 144.5q0 44 -27 82t-71 65t-96.5 52.5t-105 51.5t-96.5 54t-71 67t-27 85q0 41 24 79t59.5 65t77.5 60t77.5 64t59.5 77.5t24 100.5t-13.5 94t-32.5 62t-46 35.5t-49 17.5t-46 4 q-112 0 -174.5 -93t-62.5 -282v-1001h-154v913z" />
<glyph unicode="&#xe0;" horiz-adv-x="1095" d="M88 254q0 71 28.5 127.5t96.5 112.5q152 121 553 184q0 134 -74 199q-73 67 -164 67q-174 0 -290 -180l-105 102q189 154 395 154q167 0 283 -96q115 -95 109 -318l-11 -338q-3 -142 60 -268h-160q-33 53 -33 164q-63 -78 -161.5 -129t-202.5 -51q-144 0 -234 74t-90 196 zM248 268q0 -88 56.5 -138t158.5 -50q119 0 209 84t90 233l4 209q-314 -52 -428 -151q-50 -46 -70 -89t-20 -98zM319 1501l127 80l259 -422h-82z" />
<glyph unicode="&#xe1;" horiz-adv-x="1095" d="M88 254q0 71 28.5 127.5t96.5 112.5q152 121 553 184q0 134 -74 199q-73 67 -164 67q-174 0 -290 -180l-105 102q189 154 395 154q167 0 283 -96q115 -95 109 -318l-11 -338q-3 -142 60 -268h-160q-33 53 -33 164q-63 -78 -161.5 -129t-202.5 -51q-144 0 -234 74t-90 196 zM248 268q0 -88 56.5 -138t158.5 -50q119 0 209 84t90 233l4 209q-314 -52 -428 -151q-50 -46 -70 -89t-20 -98zM422 1159l258 422l127 -80l-303 -342h-82z" />
<glyph unicode="&#xe2;" horiz-adv-x="1095" d="M88 254q0 71 28.5 127.5t96.5 112.5q152 121 553 184q0 134 -74 199q-73 67 -164 67q-174 0 -290 -180l-105 102q189 154 395 154q167 0 283 -96q115 -95 109 -318l-11 -338q-3 -142 60 -268h-160q-33 53 -33 164q-63 -78 -161.5 -129t-202.5 -51q-144 0 -234 74t-90 196 zM248 268q0 -88 56.5 -138t158.5 -50q119 0 209 84t90 233l4 209q-314 -52 -428 -151q-50 -46 -70 -89t-20 -98zM285 1159l258 422l258 -422h-82l-176 201l-176 -201h-82z" />
<glyph unicode="&#xe3;" horiz-adv-x="1095" d="M88 254q0 71 28.5 127.5t96.5 112.5q152 121 553 184q0 134 -74 199q-73 67 -164 67q-174 0 -290 -180l-105 102q189 154 395 154q167 0 283 -96q115 -95 109 -318l-11 -338q-3 -142 60 -268h-160q-33 53 -33 164q-63 -78 -161.5 -129t-202.5 -51q-144 0 -234 74t-90 196 zM213 1210q26 82 81 135.5t136 53.5q54 0 133 -39q84 -37 142 -37q46 0 74.5 26t35.5 60l62 -18q-25 -82 -81 -135.5t-137 -53.5q-53 0 -137 37q-79 39 -137 39q-46 0 -75 -26.5t-36 -59.5zM248 268q0 -88 56.5 -138t158.5 -50q119 0 209 84t90 233l4 209 q-314 -52 -428 -151q-50 -46 -70 -89t-20 -98z" />
<glyph unicode="&#xe4;" horiz-adv-x="1095" d="M88 254q0 71 28.5 127.5t96.5 112.5q152 121 553 184q0 134 -74 199q-73 67 -164 67q-174 0 -290 -180l-105 102q189 154 395 154q167 0 283 -96q115 -95 109 -318l-11 -338q-3 -142 60 -268h-160q-33 53 -33 164q-63 -78 -161.5 -129t-202.5 -51q-144 0 -234 74t-90 196 zM248 268q0 -88 56.5 -138t158.5 -50q119 0 209 84t90 233l4 209q-314 -52 -428 -151q-50 -46 -70 -89t-20 -98zM277.5 1257.5q-25.5 54.5 0 109.5t87.5 50q43 0 70.5 -29.5t27.5 -74.5t-28 -75t-70 -30q-62 -5 -87.5 49.5zM635.5 1257.5q-25.5 54.5 0 109.5t87.5 50 q43 0 70.5 -29.5t27.5 -74.5t-28 -75t-70 -30q-62 -5 -87.5 49.5z" />
<glyph unicode="&#xe5;" horiz-adv-x="1095" d="M88 254q0 71 28.5 127.5t96.5 112.5q152 121 553 184q0 134 -74 199q-73 67 -164 67q-174 0 -290 -180l-105 102q189 154 395 154q167 0 283 -96q115 -95 109 -318l-11 -338q-3 -142 60 -268h-160q-33 53 -33 164q-63 -78 -161.5 -129t-202.5 -51q-144 0 -234 74t-90 196 zM248 268q0 -88 56.5 -138t158.5 -50q119 0 209 84t90 233l4 209q-314 -52 -428 -151q-50 -46 -70 -89t-20 -98zM301 1397q0 98 70 168q69 69 172 69q101 0 170 -69q71 -71 71 -168t-71 -168q-70 -70 -170 -70q-102 0 -172 70t-70 168zM408 1398.5q0 -71.5 38 -122.5 q38 -50 96.5 -50t96.5 50q38 51 38 122.5t-38 121.5t-96.5 50t-96.5 -50t-38 -121.5z" />
<glyph unicode="&#xe6;" horiz-adv-x="1808" d="M88 254q0 71 28.5 127t94.5 106q142 111 555 111q16 169 -54 257.5t-184 88.5q-174 0 -290 -180l-105 102q189 154 395 154q253 0 344 -180q146 180 375 180q210 0 336 -141q127 -139 127 -359h-795q-3 -215 111 -332q113 -116 260 -116q80 0 154 30q72 30 98 52 q40 31 68 57l51 -55q-156 -172 -383 -172q-284 0 -440 243q-184 -243 -422 -243q-144 0 -234 74t-90 196zM248 268q0 -88 56.5 -138t158.5 -50q119 0 209 84t90 233l4 123q-321 0 -428 -80q-50 -37 -70 -77t-20 -95zM918 598h632q-12 158 -95 253t-208 95q-113 0 -217 -94 q-103 -95 -112 -254z" />
<glyph unicode="&#xe7;" horiz-adv-x="1067" d="M98 498q0 213 146 368q148 154 362 154q192 0 357 -121l-80 -96q-124 139 -277 139q-158 0 -252 -129q-96 -131 -96 -315q-3 -201 104 -314q106 -112 250 -112q80 0 154 30q72 30 98 52q40 31 68 57l51 -55q-156 -172 -383 -172h-14l-43 -103q100 0 169.5 -42t69.5 -122 t-74.5 -130t-224.5 -50l-127 12l23 86q43 -18 89.5 -22t84.5 5t63 33.5t25 61.5q0 48 -60 73t-143 7l84 197q-186 27 -305 170t-119 338z" />
<glyph unicode="&#xe8;" horiz-adv-x="1150" d="M98 512q0 211 146 360q145 148 346 148q210 0 336 -141q127 -139 127 -359h-795q-3 -215 111 -332q113 -116 260 -116q79 0 153 30t99 52q34 26 67 57l51 -55q-156 -172 -383 -172q-217 0 -368 151q-150 150 -150 377zM260 598h633q-12 158 -95 253t-208 95 q-113 0 -217 -94q-104 -96 -113 -254zM365 1501l127 80l258 -422h-82z" />
<glyph unicode="&#xe9;" horiz-adv-x="1150" d="M98 512q0 211 146 360q145 148 346 148q210 0 336 -141q127 -139 127 -359h-795q-3 -215 111 -332q113 -116 260 -116q79 0 153 30t99 52q34 26 67 57l51 -55q-156 -172 -383 -172q-217 0 -368 151q-150 150 -150 377zM260 598h633q-12 158 -95 253t-208 95 q-113 0 -217 -94q-104 -96 -113 -254zM487 1159l258 422l127 -80l-303 -342h-82z" />
<glyph unicode="&#xea;" horiz-adv-x="1150" d="M98 512q0 211 146 360q145 148 346 148q210 0 336 -141q127 -139 127 -359h-795q-3 -215 111 -332q113 -116 260 -116q79 0 153 30t99 52q34 26 67 57l51 -55q-156 -172 -383 -172q-217 0 -368 151q-150 150 -150 377zM260 598h633q-12 158 -95 253t-208 95 q-113 0 -217 -94q-104 -96 -113 -254zM330 1159l258 422l258 -422h-82l-176 201l-176 -201h-82z" />
<glyph unicode="&#xeb;" horiz-adv-x="1150" d="M98 512q0 211 146 360q145 148 346 148q210 0 336 -141q127 -139 127 -359h-795q-3 -215 111 -332q113 -116 260 -116q79 0 153 30t99 52q34 26 67 57l51 -55q-156 -172 -383 -172q-217 0 -368 151q-150 150 -150 377zM260 598h633q-12 158 -95 253t-208 95 q-113 0 -217 -94q-104 -96 -113 -254zM322.5 1257.5q-25.5 54.5 0 109.5t87.5 50q43 0 70.5 -29.5t27.5 -74.5t-28 -75t-70 -30q-62 -5 -87.5 49.5zM680.5 1257.5q-25.5 54.5 0 109.5t87.5 50q43 0 70.5 -29.5t27.5 -74.5t-28 -75t-70 -30q-62 -5 -87.5 49.5z" />
<glyph unicode="&#xec;" horiz-adv-x="550" d="M33 1501l127 80l258 -422h-82zM201 0v1004h151v-1004h-151z" />
<glyph unicode="&#xed;" horiz-adv-x="550" d="M156 1159l258 422l127 -80l-303 -342h-82zM201 0v1004h151v-1004h-151z" />
<glyph unicode="&#xee;" horiz-adv-x="550" d="M18 1159l258 422l259 -422h-82l-177 201l-176 -201h-82zM201 0v1004h151v-1004h-151z" />
<glyph unicode="&#xef;" horiz-adv-x="550" d="M10.5 1257.5q-25.5 54.5 0 109.5t87.5 50q43 0 71 -30t28 -74q0 -45 -28 -75t-71 -30q-62 -5 -87.5 49.5zM201 0v1004h151v-1004h-151zM369.5 1257.5q-25.5 54.5 0 109.5t87.5 50q43 0 70.5 -29.5t27.5 -74.5t-28 -75t-70 -30q-62 -5 -87.5 49.5z" />
<glyph unicode="&#xf0;" horiz-adv-x="1165" d="M98 461q0 203 148 336q151 133 344 133q108 0 219 -60q-75 137 -262 287l-299 -139l-43 92l252 117q-62 49 -144 96l117 86q109 -72 164 -119l270 127l43 -92l-229 -106q389 -343 389 -707q0 -246 -141 -387q-138 -141 -351 -141q-198 0 -337 139q-140 140 -140 338z M260 455q0 -165 96 -281q95 -115 234 -115q138 0 233 115q97 117 97 281q0 161 -97 278q-95 117 -233 117q-135 0 -234 -117q-96 -116 -96 -278z" />
<glyph unicode="&#xf1;" horiz-adv-x="1214" d="M176 0v1004h152v-166q46 78 136.5 130t205.5 52q57 0 107 -10.5t100.5 -39.5t86 -75t58 -121.5t22.5 -173.5v-600h-151v596q0 163 -75.5 237t-203.5 74q-126 0 -206 -83t-80 -218v-606h-152zM289 1210q26 82 81 135.5t136 53.5q54 0 133 -39q84 -37 141 -37q46 0 75 26.5 t36 59.5l61 -18q-26 -82 -81 -135.5t-136 -53.5q-53 0 -137 37q-79 39 -137 39q-46 0 -75 -26.5t-36 -59.5z" />
<glyph unicode="&#xf2;" horiz-adv-x="1196" d="M98 502q0 212 146 364q148 154 354 154q207 0 352 -154q148 -151 148 -364q0 -216 -148 -367q-145 -151 -352 -151q-206 0 -354 151q-146 152 -146 367zM258 504q0 -188 98 -316q99 -129 242 -129t242 129q98 128 98 316q0 185 -98 313q-99 129 -242 129t-242 -129 q-98 -128 -98 -313zM354 1501l127 80l258 -422h-82z" />
<glyph unicode="&#xf3;" horiz-adv-x="1196" d="M98 502q0 212 146 364q148 154 354 154q207 0 352 -154q148 -151 148 -364q0 -216 -148 -367q-145 -151 -352 -151q-206 0 -354 151q-146 152 -146 367zM258 504q0 -188 98 -316q99 -129 242 -129t242 129q98 128 98 316q0 185 -98 313q-99 129 -242 129t-242 -129 q-98 -128 -98 -313zM477 1159l258 422l127 -80l-303 -342h-82z" />
<glyph unicode="&#xf4;" horiz-adv-x="1196" d="M98 502q0 212 146 364q148 154 354 154q207 0 352 -154q148 -151 148 -364q0 -216 -148 -367q-145 -151 -352 -151q-206 0 -354 151q-146 152 -146 367zM258 504q0 -188 98 -316q99 -129 242 -129t242 129q98 128 98 316q0 185 -98 313q-99 129 -242 129t-242 -129 q-98 -128 -98 -313zM340 1159l258 422l258 -422h-82l-176 201l-176 -201h-82z" />
<glyph unicode="&#xf5;" horiz-adv-x="1196" d="M98 502q0 212 146 364q148 154 354 154q207 0 352 -154q148 -151 148 -364q0 -216 -148 -367q-145 -151 -352 -151q-206 0 -354 151q-146 152 -146 367zM258 504q0 -188 98 -316q99 -129 242 -129t242 129q98 128 98 316q0 185 -98 313q-99 129 -242 129t-242 -129 q-98 -128 -98 -313zM289 1210q26 82 81 135.5t136 53.5q54 0 133 -39q84 -37 141 -37q46 0 75 26.5t36 59.5l61 -18q-26 -82 -81 -135.5t-136 -53.5q-53 0 -137 37q-79 39 -137 39q-46 0 -75 -26.5t-36 -59.5z" />
<glyph unicode="&#xf6;" horiz-adv-x="1196" d="M98 502q0 212 146 364q148 154 354 154q207 0 352 -154q148 -151 148 -364q0 -216 -148 -367q-145 -151 -352 -151q-206 0 -354 151q-146 152 -146 367zM258 504q0 -188 98 -316q99 -129 242 -129t242 129q98 128 98 316q0 185 -98 313q-99 129 -242 129t-242 -129 q-98 -128 -98 -313zM332.5 1257.5q-25.5 54.5 0 109.5t87.5 50q43 0 70.5 -29.5t27.5 -74.5t-28 -75t-70 -30q-62 -5 -87.5 49.5zM690.5 1257.5q-25.5 54.5 0 109.5t87.5 50q43 0 71 -30t28 -74q0 -45 -28 -75t-71 -30q-62 -5 -87.5 49.5z" />
<glyph unicode="&#xf7;" horiz-adv-x="1228" d="M111 446v140h1007v-140h-1007zM526.5 33.5q-25.5 54.5 0 109.5t87.5 50q43 0 71 -30t28 -75q0 -44 -28 -74t-71 -30q-62 -5 -87.5 49.5zM526.5 889.5q-25.5 54.5 0 109.5t87.5 50q43 0 71 -30t28 -75q0 -44 -28 -74t-71 -30q-62 -5 -87.5 49.5z" />
<glyph unicode="&#xf8;" horiz-adv-x="1196" d="M27 -70l194 228q-123 144 -123 344q0 212 146 364q148 154 354 154q158 0 283 -94l147 172h137l-207 -240q140 -152 140 -356q0 -216 -148 -367q-145 -151 -352 -151q-169 0 -301 102l-133 -156h-137zM258 504q0 -133 53 -242l502 584q-93 100 -215 100q-143 0 -242 -129 q-98 -128 -98 -313zM371 170q95 -111 227 -111q143 0 242 129q98 128 98 316q0 143 -61 256z" />
<glyph unicode="&#xf9;" horiz-adv-x="1214" d="M170 403v601h152v-596q0 -163 76 -237.5t204 -74.5q126 0 205.5 81.5t79.5 219.5v607h151v-1004h-151v166q-46 -78 -136.5 -130t-205.5 -52q-57 0 -107 10.5t-100.5 39.5t-86.5 74.5t-58.5 121t-22.5 173.5zM365 1501l127 80l258 -422h-82z" />
<glyph unicode="&#xfa;" horiz-adv-x="1214" d="M170 403v601h152v-596q0 -163 76 -237.5t204 -74.5q126 0 205.5 81.5t79.5 219.5v607h151v-1004h-151v166q-46 -78 -136.5 -130t-205.5 -52q-57 0 -107 10.5t-100.5 39.5t-86.5 74.5t-58.5 121t-22.5 173.5zM487 1159l258 422l127 -80l-303 -342h-82z" />
<glyph unicode="&#xfb;" horiz-adv-x="1214" d="M170 403v601h152v-596q0 -163 76 -237.5t204 -74.5q126 0 205.5 81.5t79.5 219.5v607h151v-1004h-151v166q-46 -78 -136.5 -130t-205.5 -52q-57 0 -107 10.5t-100.5 39.5t-86.5 74.5t-58.5 121t-22.5 173.5zM350 1159l258 422l258 -422h-82l-176 201l-176 -201h-82z" />
<glyph unicode="&#xfc;" horiz-adv-x="1214" d="M170 403v601h152v-596q0 -163 76 -237.5t204 -74.5q126 0 205.5 81.5t79.5 219.5v607h151v-1004h-151v166q-46 -78 -136.5 -130t-205.5 -52q-57 0 -107 10.5t-100.5 39.5t-86.5 74.5t-58.5 121t-22.5 173.5zM342.5 1257.5q-25.5 54.5 0 109.5t87.5 50q43 0 70.5 -29.5 t27.5 -74.5t-28 -75t-70 -30q-62 -5 -87.5 49.5zM700.5 1257.5q-25.5 54.5 0 109.5t87.5 50q43 0 71 -30t28 -74q0 -45 -28 -75t-71 -30q-62 -5 -87.5 49.5z" />
<glyph unicode="&#xfd;" horiz-adv-x="1058" d="M10 1004h176l375 -801l367 801h114l-725 -1483l-137 76q11 10 53 55q38 41 111 153q77 110 135 236zM459 1159l258 422l127 -80l-303 -342h-82z" />
<glyph unicode="&#xfe;" horiz-adv-x="1247" d="M176 -395v1794h148v-559q48 79 144.5 129.5t205.5 50.5q197 0 336 -154q139 -151 139 -364t-139 -367q-139 -151 -336 -151q-109 0 -205.5 50.5t-144.5 129.5v-559h-148zM324 502q0 -202 91.5 -322.5t243.5 -120.5q141 0 236 127q94 128 94 316q0 187 -94 315 q-95 129 -236 129q-151 0 -243 -123q-92 -124 -92 -321z" />
<glyph unicode="&#xff;" horiz-adv-x="1058" d="M10 1004h176l375 -801l367 801h114l-725 -1483l-137 76q11 10 53 55q38 41 111 153q77 110 135 236zM274.5 1257.5q-25.5 54.5 0 109.5t87.5 50q43 0 71 -30t28 -74q0 -45 -28 -75t-71 -30q-62 -5 -87.5 49.5zM633.5 1257.5q-25.5 54.5 0 109.5t87.5 50q43 0 70.5 -29.5 t27.5 -74.5t-28 -75t-70 -30q-62 -5 -87.5 49.5z" />
<glyph unicode="&#x152;" horiz-adv-x="1929" d="M106 698q0 299 209 508t516 209q102 0 230 -8q131 -8 219 -8h489v-101l-634 13v-559l608 4v-97l-608 5v-576l634 12v-100h-489q-88 0 -219 -8q-128 -8 -230 -8q-307 0 -516 206q-209 209 -209 508zM276 698q0 -269 162 -446q164 -176 410 -176q46 0 129 12v1223 q-83 12 -129 12q-247 0 -410 -178q-162 -174 -162 -447z" />
<glyph unicode="&#x153;" horiz-adv-x="1980" d="M98 502q0 212 146 364q148 154 354 154q127 0 236 -62t176 -167q67 106 175 167.5t234 61.5q210 0 336 -141q127 -139 127 -359h-795q-3 -215 111 -332q113 -116 260 -116q80 0 154 30q72 30 98 52q40 31 68 57l51 -55q-156 -172 -383 -172q-135 0 -249 63t-183 170 q-67 -107 -177 -170t-239 -63q-206 0 -354 151q-146 152 -146 367zM258 504q0 -188 98 -316q99 -129 242 -129t242 129q98 128 98 316q0 185 -98 313q-99 129 -242 129t-242 -129q-98 -128 -98 -313zM1090 598h632q-12 158 -95 253t-208 95q-113 0 -217 -94 q-103 -95 -112 -254z" />
<glyph unicode="&#x178;" horiz-adv-x="1167" d="M-25 1399h201l449 -678l426 678h141l-524 -776v-623h-168v623zM338.5 1550.5q-25.5 54.5 0 109.5t87.5 50q43 0 70.5 -29.5t27.5 -74.5t-28 -75t-70 -30q-62 -5 -87.5 49.5zM696.5 1550.5q-25.5 54.5 0 109.5t87.5 50q43 0 71 -30t28 -74q0 -45 -28 -75t-71 -30 q-62 -5 -87.5 49.5z" />
<glyph unicode="&#x2c6;" horiz-adv-x="557" d="M20 1159l259 422l258 -422h-82l-176 201l-177 -201h-82z" />
<glyph unicode="&#x2dc;" horiz-adv-x="557" d="M-51 1210q26 82 81 135.5t136 53.5q54 0 133 -39q84 -37 141 -37q46 0 75 26.5t36 59.5l61 -18q-26 -82 -81 -135.5t-136 -53.5q-53 0 -137 37q-79 39 -137 39q-46 0 -75 -26.5t-36 -59.5z" />
<glyph unicode="&#x2000;" horiz-adv-x="994" />
<glyph unicode="&#x2001;" horiz-adv-x="1989" />
<glyph unicode="&#x2002;" horiz-adv-x="994" />
<glyph unicode="&#x2003;" horiz-adv-x="1989" />
<glyph unicode="&#x2004;" horiz-adv-x="663" />
<glyph unicode="&#x2005;" horiz-adv-x="497" />
<glyph unicode="&#x2006;" horiz-adv-x="331" />
<glyph unicode="&#x2007;" horiz-adv-x="331" />
<glyph unicode="&#x2008;" horiz-adv-x="248" />
<glyph unicode="&#x2009;" horiz-adv-x="397" />
<glyph unicode="&#x200a;" horiz-adv-x="110" />
<glyph unicode="&#x2010;" horiz-adv-x="706" d="M98 453v141h510v-141h-510z" />
<glyph unicode="&#x2011;" horiz-adv-x="706" d="M98 453v141h510v-141h-510z" />
<glyph unicode="&#x2012;" horiz-adv-x="706" d="M98 453v141h510v-141h-510z" />
<glyph unicode="&#x2013;" horiz-adv-x="1024" d="M0 463v121h1024v-121h-1024z" />
<glyph unicode="&#x2014;" horiz-adv-x="2048" d="M0 463v121h2048v-121h-2048z" />
<glyph unicode="&#x2018;" horiz-adv-x="593" d="M100 1364l140 70l256 -566h-93z" />
<glyph unicode="&#x2019;" horiz-adv-x="593" d="M100 868l256 566l140 -70l-303 -496h-93z" />
<glyph unicode="&#x201a;" horiz-adv-x="593" d="M18 -317l256 565l140 -70l-303 -495h-93z" />
<glyph unicode="&#x201c;" horiz-adv-x="913" d="M100 1364l140 70l256 -566h-93zM428 1364l139 70l230 -566h-92z" />
<glyph unicode="&#x201d;" horiz-adv-x="913" d="M117 868l229 566l139 -70l-276 -496h-92zM418 868l256 566l139 -70l-303 -496h-92z" />
<glyph unicode="&#x201e;" horiz-adv-x="913" d="M31 -317l229 565l139 -70l-276 -495h-92zM332 -317l256 565l139 -70l-303 -495h-92z" />
<glyph unicode="&#x2022;" horiz-adv-x="1024" d="M170 688q0 140 100 240t240 100q142 0 242 -100q100 -97 100 -240q0 -142 -100 -242q-101 -98 -242 -98q-139 0 -240 101q-100 100 -100 239z" />
<glyph unicode="&#x2026;" horiz-adv-x="2048" d="M254.5 33.5q-25.5 54.5 0 109.5t87.5 50q42 0 70 -30t28 -75t-27.5 -74.5t-70.5 -29.5q-62 -5 -87.5 49.5zM936.5 33.5q-25.5 54.5 0 109.5t87.5 50q42 0 70 -30t28 -75t-27.5 -74.5t-70.5 -29.5q-62 -5 -87.5 49.5zM1618.5 33.5q-25.5 54.5 0 109.5t87.5 50q42 0 70 -30 t28 -75t-27.5 -74.5t-70.5 -29.5q-62 -5 -87.5 49.5z" />
<glyph unicode="&#x202f;" horiz-adv-x="397" />
<glyph unicode="&#x2039;" horiz-adv-x="749" d="M84 524l471 414l51 -51l-303 -363l303 -362l-51 -51z" />
<glyph unicode="&#x203a;" horiz-adv-x="749" d="M143 162l303 362l-303 363l52 51l471 -414l-471 -413z" />
<glyph unicode="&#x205f;" horiz-adv-x="497" />
<glyph unicode="&#x20ac;" d="M49 506l27 100h160q-3 27 -3 76q0 13 2 48t3 54h-177l27 101h166q49 219 188 358q137 137 332 137q209 0 354 -145l-92 -96q-133 157 -266 157t-226.5 -111t-129.5 -300h555l-27 -101h-541q-4 -50 -4 -102q0 -58 2 -76h494l-27 -100h-456q33 -202 126.5 -318t233.5 -116 q80 0 154 30q72 30 98 52q40 31 68 57l51 -55q-156 -172 -383 -172q-203 0 -334 143q-131 142 -174 379h-201z" />
<glyph unicode="&#x2122;" horiz-adv-x="1748" d="M63 1331v68h572v-68l-236 4v-692h-100v692zM631 643l266 797l223 -594l221 594l267 -797h-113l-176 555l-213 -596l-223 594l-172 -553h-80z" />
<glyph unicode="&#x25fc;" horiz-adv-x="1003" d="M0 0v1004h1004v-1004h-1004z" />
</font>
</defs>
</svg>
